<svg width="20" height="17" viewBox="0 0 20 17" fill="none" xmlns="http://www.w3.org/2000/svg">
<path fill-rule="evenodd" clip-rule="evenodd" d="M1.37005 7.11328C6.72217 4.78127 10.2912 3.24422 12.0769 2.5014C17.1756 0.380894 18.235 0.0122378 18.9253 0.000120645C19.0773 -0.00244967 19.4166 0.0350034 19.6369 0.213456C19.8227 0.364003 19.8737 0.567793 19.8983 0.710629C19.9229 0.853465 19.9534 1.17916 19.9292 1.43325C19.653 4.33624 18.4575 11.3811 17.8491 14.6325C17.5917 16.0084 17.0849 16.4696 16.5944 16.5147C15.5281 16.6128 14.7188 15.8101 13.6859 15.1334C12.0699 14.0741 11.1571 13.4149 9.5888 12.3813C7.776 11.1869 8.95137 10.5303 9.98426 9.4574C10.2545 9.1765 14.9523 4.90391 15.043 4.51616C15.0544 4.46769 15.065 4.28703 14.9575 4.19157C14.8499 4.0961 14.6916 4.12878 14.5774 4.15485C14.4155 4.19157 11.8342 5.89789 6.83343 9.27344C6.10089 9.77649 5.43701 10.0218 4.84254 10.0089C4.18711 9.9946 2.92619 9.63842 1.98876 9.33366C0.839092 8.95986 -0.0748374 8.76232 0.00484228 8.12745C0.0463345 7.79698 0.501647 7.4588 1.37078 7.11328H1.37005Z" fill="white"/>
</svg>
