<svg width="311" height="133" viewBox="0 0 311 133" fill="none" xmlns="http://www.w3.org/2000/svg">
<g clip-path="url(#clip0_240_350)">
<path d="M117.56 18.45H158.71C160.58 18.45 162.11 19.97 162.11 21.85V111.04C162.11 112.91 160.59 114.44 158.71 114.44H117.56C115.69 114.44 114.16 112.92 114.16 111.04V21.85C114.16 19.98 115.68 18.46 117.55 18.46L117.56 18.45Z" fill="white"/>
<path d="M182.25 27.97C181.04 29.18 180.38 30.94 180.34 32.53V100.4C180.39 101.98 181.08 103.72 182.29 104.93L209.26 131.9C210.59 133.23 212.73 133.23 214.06 131.9L243.16 102.8C244.49 101.47 244.49 99.32 243.16 98L211.63 66.47L243.16 34.94C244.49 33.61 244.49 31.46 243.16 30.14L214.02 0.99C213.36 0.33 212.49 0 211.62 0C210.75 0 209.88 0.33 209.22 0.99L182.25 27.96V27.97Z" fill="white"/>
<path d="M310.42 21.79C310.39 19.94 308.88 18.45 307.03 18.45H265.88C264 18.45 262.49 19.97 262.49 21.85V111.04C262.49 112.91 264.01 114.44 265.88 114.44H307.03C308.89 114.44 310.39 112.95 310.42 111.1V21.79Z" fill="white"/>
<path d="M95.93 63.05V21.85C95.93 19.98 94.41 18.45 92.54 18.45H54.4C52.68 18.45 50.98 19.23 49.82 20.32L1.82 68.32C0.74 69.47 0 71.19 0 72.9V111.04C0 112.91 1.52 114.44 3.39 114.44H44.54C46.41 114.44 47.93 112.92 47.93 111.04V66.44H92.53C94.41 66.44 95.92 64.92 95.92 63.05H95.93Z" fill="white"/>
</g>
<defs>
<clipPath id="clip0_240_350">
<rect width="310.42" height="132.89" fill="white"/>
</clipPath>
</defs>
</svg>
