<svg width="1600" height="230" viewBox="0 0 1600 230" fill="none" xmlns="http://www.w3.org/2000/svg">
<g clip-path="url(#clip0_1098_1147)">
<path d="M24.623 96.7682V174.331H48.0148V98.2456C48.0148 79.2859 58.8489 68.9443 77.8086 68.9443C95.0446 68.9443 105.14 77.3161 109.818 96.0295H135.18C130.255 65.0046 108.341 46.7836 77.3161 46.7836C46.2912 46.7836 24.623 65.9895 24.623 96.7682ZM134.934 152.662H0V174.823H134.934V152.662Z" fill="white"/>
<path d="M172.361 139.612C172.361 128.286 181.471 121.884 197.722 121.884H246.476V126.316C246.476 147.245 227.762 159.803 202.893 159.803C183.687 159.803 172.361 152.416 172.361 139.612ZM192.798 101.693C165.959 101.693 148.23 116.713 148.23 140.597C148.23 164.481 166.451 179.748 196.245 179.748C219.144 179.748 237.365 170.883 247.461 155.371V174.823H269.621V100.462C269.621 67.4669 246.23 46.7836 209.788 46.7836C175.808 46.7836 152.17 64.7584 145.522 96.0295H170.391C176.547 77.5623 189.351 68.9443 209.295 68.9443C232.687 68.9443 246.23 80.7633 246.23 101.693H192.798Z" fill="white"/>
<path d="M310.988 106.125C310.988 82.4869 326.008 68.9443 351.616 68.9443C377.224 68.9443 391.259 82.4869 391.259 106.125V119.914C391.259 144.291 376.485 157.587 351.123 157.587C325.762 157.587 310.988 144.291 310.988 119.914V106.125ZM286.857 120.406C286.857 156.11 310.495 179.748 345.46 179.748C366.143 179.748 382.395 171.376 392.49 156.848V174.823H414.651V2.46228H391.259V67.9594C381.163 54.4167 365.405 46.7836 345.46 46.7836C310.495 46.7836 286.857 70.1754 286.857 105.632V120.406Z" fill="white"/>
<path d="M435.088 51.9544V129.024C435.088 159.557 455.278 179.748 486.057 179.748C506.248 179.748 521.76 170.883 531.363 154.878V174.823H553.524V51.7082H530.132V117.451C530.132 142.813 515.851 157.587 490.982 157.587C469.067 157.587 458.479 146.26 458.479 123.607V51.9544H435.088Z" fill="white"/>
<path d="M594.645 106.617V117.944C594.645 141.582 609.665 155.125 635.272 155.125C660.88 155.125 674.915 141.582 674.915 117.944V106.617C674.915 82.2407 660.142 68.9443 634.78 68.9443C609.418 68.9443 594.645 82.2407 594.645 106.617ZM570.514 106.125C570.514 70.4217 594.152 46.7836 629.117 46.7836C649.8 46.7836 666.051 55.1554 676.147 69.683V51.7082H698.307V171.13C698.307 207.818 674.915 229.732 636.257 229.732C600.8 229.732 574.7 211.265 567.559 179.255H593.413C599.815 198.461 614.589 207.572 636.257 207.572C661.373 207.572 674.915 195.26 674.915 172.361V156.11C664.82 169.652 649.061 177.285 629.117 177.285C594.152 177.285 570.514 153.894 570.514 118.436V106.125Z" fill="white"/>
<path d="M741.644 139.612C741.644 128.286 750.754 121.884 767.005 121.884H815.759V126.316C815.759 147.245 797.045 159.803 772.176 159.803C752.97 159.803 741.644 152.416 741.644 139.612ZM762.081 101.693C735.242 101.693 717.513 116.713 717.513 140.597C717.513 164.481 735.734 179.748 765.528 179.748C788.427 179.748 806.648 170.883 816.744 155.371V174.823H838.904V100.462C838.904 67.4669 815.512 46.7836 779.07 46.7836C745.091 46.7836 721.453 64.7584 714.804 96.0295H739.674C745.829 77.5623 758.633 68.9443 778.578 68.9443C801.97 68.9443 815.512 80.7633 815.512 101.693H762.081Z" fill="white"/>
<path d="M880.271 106.125C880.271 82.4869 895.291 68.9443 920.899 68.9443C946.507 68.9443 960.542 82.4869 960.542 106.125V119.914C960.542 144.291 945.768 157.587 920.406 157.587C895.045 157.587 880.271 144.291 880.271 119.914V106.125ZM856.14 120.406C856.14 156.11 879.778 179.748 914.743 179.748C935.426 179.748 951.677 171.376 961.773 156.848V174.823H983.934V2.46228H960.542V67.9594C950.446 54.4167 934.688 46.7836 914.743 46.7836C879.778 46.7836 856.14 70.1754 856.14 105.632V120.406Z" fill="white"/>
<path d="M1027.27 101.447C1028.99 81.0095 1043.03 68.9443 1067.16 68.9443C1091.29 68.9443 1105.32 81.0095 1107.05 101.447H1027.27ZM1002.89 105.633V120.406C1002.89 157.341 1027.76 179.748 1067.9 179.748C1102.62 179.748 1127.49 163.004 1133.89 135.18H1108.53C1102.12 150.446 1089.32 157.587 1068.64 157.587C1041.8 157.587 1027.76 145.275 1027.02 121.637H1131.43V105.633C1131.43 69.9292 1106.31 46.7836 1067.41 46.7836C1028.5 46.7836 1002.89 70.1754 1002.89 105.633Z" fill="white"/>
<path d="M1268.57 140.105C1268.57 165.466 1247.4 179.748 1212.68 179.748C1175.99 179.748 1152.11 163.989 1143.49 135.18H1169.34C1175.01 150.2 1190.03 157.587 1213.17 157.587C1232.87 157.587 1244.44 152.17 1244.44 139.858C1244.44 129.024 1235.33 124.1 1216.37 123.361L1199.63 122.622C1169.59 121.391 1151.62 107.356 1151.62 84.703C1151.62 60.8187 1171.81 46.7836 1204.8 46.7836C1240.26 46.7836 1264.88 62.7886 1271.28 89.8738H1245.92C1239.03 75.1 1227.21 68.9443 1206.77 68.9443C1186.33 68.9443 1175.75 74.6076 1175.75 85.1954C1175.75 94.0597 1183.87 98.9843 1199.88 99.723L1216.62 100.462C1249.86 101.939 1268.57 116.467 1268.57 140.105Z" fill="white"/>
<path d="M1283.35 17.2361C1283.35 27.5777 1290 34.4721 1300.09 34.4721C1310.19 34.4721 1316.59 27.5777 1316.59 17.2361C1316.59 6.89443 1309.94 0 1300.09 0C1290.24 0 1283.35 6.89443 1283.35 17.2361ZM1311.67 51.7082H1288.27V174.823H1311.67V51.7082Z" fill="white"/>
<path d="M1353.28 106.617V117.944C1353.28 141.582 1368.3 155.125 1393.91 155.125C1419.51 155.125 1433.55 141.582 1433.55 117.944V106.617C1433.55 82.2407 1418.78 68.9443 1393.41 68.9443C1368.05 68.9443 1353.28 82.2407 1353.28 106.617ZM1329.15 106.125C1329.15 70.4217 1352.79 46.7836 1387.75 46.7836C1408.43 46.7836 1424.68 55.1554 1434.78 69.683V51.7082H1456.94V171.13C1456.94 207.818 1433.55 229.732 1394.89 229.732C1359.43 229.732 1333.33 211.265 1326.19 179.255H1352.05C1358.45 198.461 1373.22 207.572 1394.89 207.572C1420.01 207.572 1433.55 195.26 1433.55 172.361V156.11C1423.45 169.652 1407.69 177.285 1387.75 177.285C1352.79 177.285 1329.15 153.894 1329.15 118.436V106.125Z" fill="white"/>
<path d="M1600 174.577V98.7381C1600 67.2207 1579.56 46.7836 1548.05 46.7836C1526.87 46.7836 1510.86 55.8941 1501.26 72.1453V51.7082H1479.1V174.823H1502.49V109.08C1502.49 83.7181 1517.27 68.9443 1542.87 68.9443C1565.53 68.9443 1576.61 80.5171 1576.61 104.155V174.577H1600Z" fill="white"/>
</g>
<defs>
<clipPath id="clip0_1098_1147">
<rect width="1600" height="229.732" fill="white"/>
</clipPath>
</defs>
</svg>
