<svg width="24" height="24" viewBox="0 0 24 24" fill="none" xmlns="http://www.w3.org/2000/svg">
<path d="M19.1111 0.732224C20.0875 -0.244071 21.67 -0.244079 22.6463 0.732224C23.6226 1.70854 23.6226 3.29108 22.6463 4.26738L17.346 9.56696C16.1743 10.7385 16.1743 12.6381 17.3459 13.8097L22.6463 19.1102C23.6226 20.0865 23.6226 21.67 22.6463 22.6463C21.67 23.6223 20.0874 23.6223 19.1111 22.6463L13.8106 17.3457C12.639 16.1742 10.7395 16.1742 9.56794 17.3457L4.26739 22.6463C3.29113 23.6223 1.70849 23.6223 0.732234 22.6463C-0.244067 21.67 -0.244088 20.0865 0.732234 19.1102L6.03209 13.8096C7.20353 12.638 7.20347 10.7386 6.03195 9.5671L0.732234 4.26738C-0.244069 3.29108 -0.244061 1.70854 0.732234 0.732224C1.70854 -0.244079 3.29108 -0.244071 4.26739 0.732224L9.56808 6.03222C10.7396 7.20361 12.6389 7.20361 13.8104 6.03222L19.1111 0.732224Z" fill="white"/>
</svg>
